<svg width="435" height="265" xmlns="http://www.w3.org/2000/svg" xmlns:xlink="http://www.w3.org/1999/xlink" overflow="hidden"><defs><clipPath id="clip0"><rect x="0" y="0" width="435" height="265"/></clipPath></defs><g clip-path="url(#clip0)"><rect x="0" y="0" width="435" height="265.298" fill="#FFFFFF"/><text fill="#3A3A3A" font-family="Berlin Sans FB,Berlin Sans FB_MSFontService,sans-serif" font-weight="600" font-size="59" transform="matrix(1 0 0 1.00112 10.6748 242)">TF_GEOMETRIC</text><path d="M264 31.5354C264 22.4125 271.387 15.0169 280.5 15.0169 289.613 15.0169 297 22.4125 297 31.5354 297 40.6583 289.613 48.0539 280.5 48.0539 271.387 48.0539 264 40.6583 264 31.5354Z" stroke="#FF9000" stroke-width="8.00614" stroke-miterlimit="8" fill="none" fill-rule="evenodd"/><path d="M215 101.614C215 92.4911 222.163 85.0955 231 85.0955 239.837 85.0955 247 92.4911 247 101.614 247 110.737 239.837 118.132 231 118.132 222.163 118.132 215 110.737 215 101.614Z" stroke="#FF9000" stroke-width="8.00614" stroke-miterlimit="8" fill="none" fill-rule="evenodd"/><path d="M65 98.11C65 89.2635 72.3873 82.092 81.5 82.092 90.6127 82.092 98 89.2635 98 98.11 98 106.956 90.6127 114.128 81.5 114.128 72.3873 114.128 65 106.956 65 98.11Z" stroke="#FF9000" stroke-width="8.00614" stroke-miterlimit="8" fill="none" fill-rule="evenodd"/><path d="M259 154.173C259 145.326 266.387 138.155 275.5 138.155 284.613 138.155 292 145.326 292 154.173 292 163.019 284.613 170.191 275.5 170.191 266.387 170.191 259 163.019 259 154.173Z" stroke="#FF9000" stroke-width="8.00614" stroke-miterlimit="8" fill="none" fill-rule="evenodd"/><path d="M154 147.666C154 138.543 161.387 131.147 170.5 131.147 179.613 131.147 187 138.543 187 147.666 187 156.789 179.613 164.184 170.5 164.184 161.387 164.184 154 156.789 154 147.666Z" stroke="#FF9000" stroke-width="8.00614" stroke-miterlimit="8" fill="none" fill-rule="evenodd"/><path d="M114 48.0539C114 39.2074 121.387 32.0359 130.5 32.0359 139.613 32.0359 147 39.2074 147 48.0539 147 56.9004 139.613 64.0719 130.5 64.0719 121.387 64.0719 114 56.9004 114 48.0539Z" stroke="#FF9000" stroke-width="8.00614" stroke-miterlimit="8" fill="none" fill-rule="evenodd"/><path d="M93 110.123 158.751 136.271" stroke="#FF9000" stroke-width="8.00614" stroke-miterlimit="8" fill="none" fill-rule="evenodd"/><path d="M242 113.127 263.375 142.931" stroke="#FF9000" stroke-width="8.00614" stroke-miterlimit="8" fill="none" fill-rule="evenodd"/><path d="M0 0 37.5236 23.0308" stroke="#FF9000" stroke-width="8.00614" stroke-miterlimit="8" fill="none" fill-rule="evenodd" transform="matrix(1 0 0 -1.00112 182 136.183)"/><path d="M0 0 25.9751 26.8546" stroke="#FF9000" stroke-width="8.00614" stroke-miterlimit="8" fill="none" fill-rule="evenodd" transform="matrix(-1 0 0 1.00112 118.975 60.0673)"/><path d="M142 60.0673 170.228 131.433" stroke="#FF9000" stroke-width="8.00614" stroke-miterlimit="8" fill="none" fill-rule="evenodd"/><path d="M0 0 26.4604 46.4086" stroke="#FF9000" stroke-width="8.00614" stroke-miterlimit="8" fill="none" fill-rule="evenodd" transform="matrix(-1 0 0 1.00112 268.46 43.0483)"/><path d="M337 82.5926C337 73.4697 344.387 66.0741 353.5 66.0741 362.613 66.0741 370 73.4697 370 82.5926 370 91.7155 362.613 99.1111 353.5 99.1111 344.387 99.1111 337 91.7155 337 82.5926Z" stroke="#FF9000" stroke-width="8.00614" stroke-miterlimit="8" fill="none" fill-rule="evenodd"/><path d="M292 43.0483 342.022 70.7728" stroke="#FF9000" stroke-width="8.00614" stroke-miterlimit="8" fill="none" fill-rule="evenodd"/><path d="M0 0 90.0124 18.715" stroke="#FF9000" stroke-width="8.00614" stroke-miterlimit="8" fill="none" fill-rule="evenodd" transform="matrix(-1 0 0 1.00112 337.012 82.092)"/></g></svg>